<?xml version="1.0" standalone="no"?>
<!DOCTYPE svg PUBLIC "-//W3C//DTD SVG 20010904//EN"
 "http://www.w3.org/TR/2001/REC-SVG-20010904/DTD/svg10.dtd">
<svg version="1.0" xmlns="http://www.w3.org/2000/svg"
 width="96.000000pt" height="96.000000pt" viewBox="0 0 96.000000 96.000000"
 preserveAspectRatio="xMidYMid meet">
<metadata>
Created by potrace 1.11, written by Peter Selinger 2001-2013
</metadata>
<g transform="translate(0.000000,96.000000) scale(0.100000,-0.100000)"
fill="#000000" stroke="none">
<path d="M527 799 c-21 -3 -52 -16 -69 -29 -30 -22 -34 -22 -95 -10 -61 12
-66 11 -93 -9 -16 -11 -36 -21 -44 -21 -8 0 -27 -16 -42 -35 -14 -19 -35 -35
-45 -35 -10 0 -39 -21 -65 -46 -43 -43 -46 -50 -41 -86 3 -22 12 -47 19 -56 8
-9 20 -36 26 -59 7 -24 26 -53 46 -71 19 -16 39 -40 46 -52 6 -12 28 -29 48
-37 20 -8 54 -30 74 -49 66 -60 128 -58 201 6 53 47 100 68 244 111 120 35
147 47 182 80 21 20 22 23 7 34 -9 7 -16 25 -16 41 -1 48 -42 118 -76 128 -27
8 -49 34 -110 133 -12 19 -26 39 -33 46 -14 14 -114 24 -164 16z m47 -71 c-16
-60 -18 -98 -5 -98 5 0 14 29 21 65 14 72 28 90 65 81 23 -6 24 -8 11 -29 -22
-34 -46 -126 -35 -132 8 -6 29 34 29 56 0 6 7 24 16 41 l16 32 15 -28 c11 -21
12 -34 4 -58 -14 -38 -14 -78 -1 -78 5 0 12 17 16 38 10 54 14 57 34 26 16
-23 16 -30 5 -48 -7 -12 -16 -31 -20 -43 -10 -35 15 -28 28 7 8 21 18 30 34
30 31 0 28 -18 -7 -59 -16 -19 -26 -39 -23 -44 19 -31 -360 26 -398 59 -8 7
-21 36 -28 63 -7 28 -17 51 -23 53 -8 3 -7 11 1 26 9 16 21 22 46 22 33 0 35
-2 41 -40 4 -22 10 -43 15 -45 15 -10 20 15 9 55 -10 38 -9 43 12 60 l23 18
10 -66 c6 -36 16 -67 23 -70 15 -5 15 -1 1 72 -14 75 -9 86 39 86 l39 0 -13
-52z m-244 14 c0 -4 -4 -12 -8 -17 -5 -6 -26 -57 -48 -115 -48 -129 -50 -198
-11 -282 29 -62 53 -96 62 -87 3 4 -9 35 -26 69 -47 88 -50 155 -13 260 l28
81 18 -60 c11 -35 27 -65 38 -71 41 -22 192 -51 310 -59 128 -9 220 -27 220
-42 0 -18 -52 -42 -162 -74 -152 -45 -202 -68 -255 -115 -50 -44 -99 -58 -134
-39 -13 6 -43 29 -66 50 -24 22 -52 39 -63 39 -23 0 -59 66 -60 108 0 32 -18
27 -22 -5 l-3 -28 -19 29 c-12 17 -22 52 -24 87 -2 33 -8 59 -13 59 -5 0 -9
-5 -9 -11 0 -5 -4 -7 -10 -4 -5 3 -10 18 -10 33 0 19 3 23 9 13 11 -18 31 -5
31 20 0 19 33 59 49 59 5 0 3 -17 -5 -37 -15 -43 -18 -113 -5 -113 5 0 12 21
15 48 8 50 47 142 70 161 11 9 9 -3 -5 -49 -23 -74 -24 -90 -4 -90 10 0 15 10
15 28 0 46 30 121 57 142 26 20 53 26 53 12z m545 -218 c25 -60 21 -67 -27
-59 -24 4 -46 9 -51 12 -7 4 49 83 59 83 2 0 11 -16 19 -36z"/>
</g>
</svg>
